<svg xmlns="http://www.w3.org/2000/svg" viewBox="0 0 400 400" fill="none">
  <rect width="400" height="400" rx="24" fill="#E8F4FD"/>
  <rect x="60" y="60" width="280" height="280" rx="20" fill="white" stroke="#1A7FC4" stroke-width="2"/>
  <!-- Bottle on left -->
  <path d="M115 185 L105 310 L195 310 L185 185Z" fill="#0B5E8A"/>
  <path d="M105 310 L195 310 L200 328 L100 328Z" fill="#094C72"/>
  <rect x="125" y="140" width="60" height="45" rx="4" fill="#0B5E8A"/>
  <rect x="122" y="128" width="66" height="15" rx="4" fill="#1A7FC4"/>
  <rect x="132" y="124" width="46" height="6" rx="2" fill="#1A7FC4"/>
  <rect x="118" y="200" width="64" height="80" rx="4" fill="white" opacity="0.95"/>
  <text x="150" y="218" text-anchor="middle" fill="#0B5E8A" font-family="Arial, sans-serif" font-weight="700" font-size="6">AMRICH</text>
  <text x="150" y="233" text-anchor="middle" fill="#0B5E8A" font-family="Arial, sans-serif" font-weight="900" font-size="8">EASY</text>
  <text x="150" y="245" text-anchor="middle" fill="#0B5E8A" font-family="Arial, sans-serif" font-weight="900" font-size="7">LITE</text>
  <rect x="134" y="255" width="32" height="10" rx="4" fill="#1A7FC4"/>
  <text x="150" y="263" text-anchor="middle" fill="white" font-family="Arial, sans-serif" font-weight="700" font-size="5">1L</text>
  <!-- Plus sign -->
  <text x="210" y="235" text-anchor="middle" fill="#0B5E8A" font-family="Arial, sans-serif" font-weight="700" font-size="20">+</text>
  <!-- Sachet on right -->
  <rect x="230" y="145" width="60" height="155" rx="6" fill="#0B5E8A"/>
  <rect x="230" y="138" width="60" height="12" rx="3" fill="#1A7FC4"/>
  <path d="M250 138 L260 130 L270 138Z" fill="#1A7FC4"/>
  <rect x="230" y="293" width="60" height="8" rx="3" fill="#1A7FC4"/>
  <rect x="238" y="160" width="44" height="55" rx="4" fill="white" opacity="0.95"/>
  <text x="260" y="175" text-anchor="middle" fill="#0B5E8A" font-family="Arial, sans-serif" font-weight="700" font-size="5">AMRICH</text>
  <text x="260" y="187" text-anchor="middle" fill="#0B5E8A" font-family="Arial, sans-serif" font-weight="900" font-size="7">LITE</text>
  <rect x="246" y="196" width="28" height="10" rx="4" fill="#1A7FC4"/>
  <text x="260" y="204" text-anchor="middle" fill="white" font-family="Arial, sans-serif" font-weight="700" font-size="5" xml:space="preserve">500g</text>
</svg>
