<svg xmlns="http://www.w3.org/2000/svg" viewBox="0 0 400 400" fill="none">
  <rect width="400" height="400" rx="24" fill="#E8F4FD"/>
  <rect x="60" y="60" width="280" height="280" rx="20" fill="white" stroke="#1A7FC4" stroke-width="2"/>
  <!-- Pouch body -->
  <rect x="135" y="115" width="130" height="192" rx="10" fill="#0B5E8A"/>
  <!-- Pouch top seal -->
  <rect x="135" y="107" width="130" height="14" rx="4" fill="#1A7FC4"/>
  <!-- Pouch bottom seal -->
  <rect x="135" y="300" width="130" height="10" rx="4" fill="#1A7FC4"/>
  <!-- Pouch notch -->
  <path d="M192 107 L200 98 L208 107Z" fill="#1A7FC4"/>
  <!-- Heat seal lines -->
  <line x1="135" y1="121" x2="265" y2="121" stroke="#094C72" stroke-width="1"/>
  <line x1="135" y1="300" x2="265" y2="300" stroke="#094C72" stroke-width="1"/>
  <!-- Label -->
  <rect x="150" y="140" width="100" height="140" rx="8" fill="white" opacity="0.95"/>
  <text x="200" y="165" text-anchor="middle" fill="#0B5E8A" font-family="Arial, sans-serif" font-weight="700" font-size="9">AMRICH</text>
  <text x="200" y="184" text-anchor="middle" fill="#0B5E8A" font-family="Arial, sans-serif" font-weight="900" font-size="13">FARMAMIN</text>
  <text x="200" y="202" text-anchor="middle" fill="#1A7FC4" font-family="Arial, sans-serif" font-weight="600" font-size="8">Mineral Balancer</text>
  <line x1="160" y1="213" x2="240" y2="213" stroke="#1A7FC4" stroke-width="0.5"/>
  <text x="200" y="230" text-anchor="middle" fill="#666" font-family="Arial, sans-serif" font-weight="500" font-size="8">1 kg POUCH</text>
  <rect x="178" y="242" width="44" height="14" rx="7" fill="#1A7FC4"/>
  <text x="200" y="253" text-anchor="middle" fill="white" font-family="Arial, sans-serif" font-weight="700" font-size="7">POWDER</text>
</svg>
