<svg xmlns="http://www.w3.org/2000/svg" viewBox="0 0 400 400" fill="none">
  <rect width="400" height="400" rx="24" fill="#E8F4FD"/>
  <rect x="60" y="60" width="280" height="280" rx="20" fill="white" stroke="#1A7FC4" stroke-width="2"/>
  <!-- Bucket body -->
  <path d="M112 120 L125 320 L275 320 L288 120Z" fill="#0B5E8A"/>
  <path d="M125 320 L275 320 L280 340 L120 340Z" fill="#094C72"/>
  <!-- Bucket top rim -->
  <rect x="105" y="110" width="190" height="18" rx="4" fill="#1A7FC4"/>
  <!-- Bucket handles -->
  <path d="M200 105 L200 88" stroke="#1A7FC4" stroke-width="4" stroke-linecap="round"/>
  <path d="M140 110 C140 78 260 78 260 110" fill="none" stroke="#1A7FC4" stroke-width="4" stroke-linecap="round"/>
  <!-- Bucket lid -->
  <rect x="115" y="110" width="170" height="10" rx="2" fill="#1A7FC4" opacity="0.3"/>
  <!-- Label area -->
  <rect x="140" y="155" width="120" height="130" rx="8" fill="white" opacity="0.95"/>
  <!-- Brand text -->
  <text x="200" y="183" text-anchor="middle" fill="#0B5E8A" font-family="Arial, sans-serif" font-weight="700" font-size="10">AMRICH</text>
  <text x="200" y="199" text-anchor="middle" fill="#0B5E8A" font-family="Arial, sans-serif" font-weight="900" font-size="16">PRO PLUS</text>
  <text x="200" y="218" text-anchor="middle" fill="#1A7FC4" font-family="Arial, sans-serif" font-weight="600" font-size="9">Soil Probiotic</text>
  <line x1="155" y1="230" x2="245" y2="230" stroke="#1A7FC4" stroke-width="0.5"/>
  <text x="200" y="246" text-anchor="middle" fill="#666" font-family="Arial, sans-serif" font-weight="500" font-size="9">5 kg BUCKET</text>
  <rect x="175" y="255" width="50" height="16" rx="8" fill="#1A7FC4"/>
  <text x="200" y="267" text-anchor="middle" fill="white" font-family="Arial, sans-serif" font-weight="700" font-size="8">POWDER</text>
  <!-- Bottom detail -->
  <rect x="130" y="290" width="140" height="3" rx="1" fill="#1A7FC4" opacity="0.3"/>
</svg>
