<svg xmlns="http://www.w3.org/2000/svg" width="512" height="512" viewBox="0 0 512 512">
  <rect width="512" height="512" rx="85" fill="#0052ff"/>
  <path d="M201.6 314a300.4 300.4 0 0 0-114 27.6l96.8-262.8c2.8-8 7.6-12.8 13.6-12.8h116c6 0 10.8 4.8 13.6 12.8l96.8 262.8s-46.4-28-114-28L268 182c-1.6-6.8-6.4-11.2-11.6-11.2-5.2 0-10 4.4-11.6 10.8l-43.2 132.4Z" fill="#fff"/>
  <path d="M312 382c9.6 0 18 4 24 11.2 6-7.2 14.4-11.2 24-11.2h4c-11.6-20-33.2-33.2-58-33.2-5.2 0-10 .4-15.2 1.2 7.6 8.4 14.8 18.8 17.6 32h3.6Z" fill="#fff" opacity="0.8"/>
</svg>
