<svg xmlns="http://www.w3.org/2000/svg" width="192" height="192" viewBox="0 0 192 192">
  <rect width="192" height="192" rx="32" fill="#0052ff"/>
  <path d="M75.6 117.75a112.65 112.65 0 0 0-42.75 10.35l36.3-98.55c1.05-3 2.85-4.8 5.1-4.8h43.5c2.25 0 4.05 1.8 5.1 4.8l36.3 98.55s-17.4-10.5-42.75-10.5L100.5 68.25c-.6-2.55-2.4-4.2-4.35-4.2-1.95 0-3.75 1.65-4.35 4.05l-16.2 49.65Z" fill="#fff"/>
  <path d="M117 143.25c3.6 0 6.75 1.5 9 4.2 2.25-2.7 5.4-4.2 9-4.2h1.5c-4.35-7.5-12.45-12.45-21.75-12.45-1.95 0-3.75.15-5.7.45 2.85 3.15 5.55 7.05 6.6 12h1.35Z" fill="#fff" opacity="0.8"/>
</svg>
